STARTFONT 2.1
COMMENT 
COMMENT Copyright (C) 2012-2015 Uwe Waldmann
COMMENT Modifications Copyright (c) 2018 Andy Walker
FONT -AW-Greybeard-Medium-R-Normal--11-100-75-75-C-60--Fontspecific
SIZE 11 75 75
FONTBOUNDINGBOX 6 11 0 -2
STARTPROPERTIES 19
FONTNAME_REGISTRY ""
FOUNDRY "AW"
FAMILY_NAME "Greybeard"
WEIGHT_NAME "Medium"
SLANT "R"
SETWIDTH_NAME "Normal"
ADD_STYLE_NAME ""
PIXEL_SIZE 11
POINT_SIZE 100
RESOLUTION_X 75
RESOLUTION_Y 75
SPACING "C"
AVERAGE_WIDTH 60
CHARSET_REGISTRY ""
CHARSET_ENCODING "Fontspecific"
DEFAULT_CHAR 0
FONT_DESCENT 2
FONT_ASCENT 9
COPYRIGHT "Copyright (C) 2012-2015 Uwe Waldmann, Modifications Copyright (c) 2018 Andy Walker"
ENDPROPERTIES
CHARS 234
STARTCHAR LtCapALdot
ENCODING 735
SWIDTH 840 0
DWIDTH 6 0
BBX 6 11 0 -2
BITMAP
00
30
30
48
48
78
48
48
48
00
30
ENDCHAR
STARTCHAR LtCapBLdot
ENCODING 736
SWIDTH 840 0
DWIDTH 6 0
BBX 6 11 0 -2
BITMAP
00
70
48
48
70
48
48
48
70
00
30
ENDCHAR
STARTCHAR LtCapCLdot
ENCODING 737
SWIDTH 840 0
DWIDTH 6 0
BBX 6 11 0 -2
BITMAP
00
30
48
40
40
40
40
48
30
00
30
ENDCHAR
STARTCHAR LtCapDLdot
ENCODING 738
SWIDTH 840 0
DWIDTH 6 0
BBX 6 11 0 -2
BITMAP
00
60
50
48
48
48
48
50
60
00
60
ENDCHAR
STARTCHAR LtCapELdot
ENCODING 739
SWIDTH 840 0
DWIDTH 6 0
BBX 6 11 0 -2
BITMAP
00
78
40
40
70
40
40
40
78
00
30
ENDCHAR
STARTCHAR LtCapHLdot
ENCODING 740
SWIDTH 840 0
DWIDTH 6 0
BBX 6 11 0 -2
BITMAP
00
48
48
48
78
48
48
48
48
00
30
ENDCHAR
STARTCHAR LtCapILdot
ENCODING 741
SWIDTH 840 0
DWIDTH 6 0
BBX 6 11 0 -2
BITMAP
00
38
10
10
10
10
10
10
38
00
30
ENDCHAR
STARTCHAR LtCapKLdot
ENCODING 742
SWIDTH 840 0
DWIDTH 6 0
BBX 6 11 0 -2
BITMAP
00
48
48
50
60
50
50
48
48
00
30
ENDCHAR
STARTCHAR LtCapLLdot
ENCODING 743
SWIDTH 840 0
DWIDTH 6 0
BBX 6 11 0 -2
BITMAP
00
40
40
40
40
40
40
40
78
00
30
ENDCHAR
STARTCHAR LtCapMLdot
ENCODING 744
SWIDTH 840 0
DWIDTH 6 0
BBX 6 11 0 -2
BITMAP
00
44
6c
6c
54
54
44
44
44
00
30
ENDCHAR
STARTCHAR LtCapNLdot
ENCODING 745
SWIDTH 840 0
DWIDTH 6 0
BBX 6 11 0 -2
BITMAP
00
48
48
68
68
58
58
48
48
00
30
ENDCHAR
STARTCHAR LtCapOLdot
ENCODING 746
SWIDTH 840 0
DWIDTH 6 0
BBX 6 11 0 -2
BITMAP
00
30
48
48
48
48
48
48
30
00
30
ENDCHAR
STARTCHAR LtCapPLdot
ENCODING 747
SWIDTH 840 0
DWIDTH 6 0
BBX 6 11 0 -2
BITMAP
00
70
48
48
48
70
40
40
40
00
60
ENDCHAR
STARTCHAR LtCapQLdot
ENCODING 748
SWIDTH 840 0
DWIDTH 6 0
BBX 6 11 0 -2
BITMAP
00
30
48
48
48
48
68
58
30
08
30
ENDCHAR
STARTCHAR LtCapRLdot
ENCODING 749
SWIDTH 840 0
DWIDTH 6 0
BBX 6 11 0 -2
BITMAP
00
70
48
48
70
50
50
48
48
00
30
ENDCHAR
STARTCHAR LtCapSLdot
ENCODING 750
SWIDTH 840 0
DWIDTH 6 0
BBX 6 11 0 -2
BITMAP
00
30
48
40
20
10
08
48
30
00
30
ENDCHAR
STARTCHAR LtCapTLdot
ENCODING 751
SWIDTH 840 0
DWIDTH 6 0
BBX 6 11 0 -2
BITMAP
00
7c
10
10
10
10
10
10
10
00
30
ENDCHAR
STARTCHAR LtCapULdot
ENCODING 752
SWIDTH 840 0
DWIDTH 6 0
BBX 6 11 0 -2
BITMAP
00
48
48
48
48
48
48
48
30
00
30
ENDCHAR
STARTCHAR LtCapVLdot
ENCODING 753
SWIDTH 840 0
DWIDTH 6 0
BBX 6 11 0 -2
BITMAP
00
44
44
44
44
28
28
10
10
00
30
ENDCHAR
STARTCHAR LtCapWLdot
ENCODING 754
SWIDTH 840 0
DWIDTH 6 0
BBX 6 11 0 -2
BITMAP
00
44
44
44
54
54
7c
28
28
00
30
ENDCHAR
STARTCHAR LtCapYLdot
ENCODING 755
SWIDTH 840 0
DWIDTH 6 0
BBX 6 11 0 -2
BITMAP
00
44
44
28
28
10
10
10
10
00
30
ENDCHAR
STARTCHAR LtCapZLdot
ENCODING 756
SWIDTH 840 0
DWIDTH 6 0
BBX 6 11 0 -2
BITMAP
00
78
08
10
10
20
20
40
78
00
30
ENDCHAR
STARTCHAR LtSmlALdot
ENCODING 757
SWIDTH 840 0
DWIDTH 6 0
BBX 6 11 0 -2
BITMAP
00
00
00
30
08
38
48
48
38
00
30
ENDCHAR
STARTCHAR LtSmlBLdot
ENCODING 758
SWIDTH 840 0
DWIDTH 6 0
BBX 6 11 0 -2
BITMAP
00
40
40
70
48
48
48
48
70
00
30
ENDCHAR
STARTCHAR LtSmlCLdot
ENCODING 759
SWIDTH 840 0
DWIDTH 6 0
BBX 6 11 0 -2
BITMAP
00
00
00
30
48
40
40
40
38
00
30
ENDCHAR
STARTCHAR LtSmlDLdot
ENCODING 760
SWIDTH 840 0
DWIDTH 6 0
BBX 6 11 0 -2
BITMAP
00
08
08
38
48
48
48
48
38
00
30
ENDCHAR
STARTCHAR LtSmlELdot
ENCODING 761
SWIDTH 840 0
DWIDTH 6 0
BBX 6 11 0 -2
BITMAP
00
00
00
30
48
78
40
40
38
00
30
ENDCHAR
STARTCHAR LtSmlHLdot
ENCODING 762
SWIDTH 840 0
DWIDTH 6 0
BBX 6 11 0 -2
BITMAP
00
40
40
58
68
48
48
48
48
00
30
ENDCHAR
STARTCHAR LtSmlILdot
ENCODING 763
SWIDTH 840 0
DWIDTH 6 0
BBX 6 11 0 -2
BITMAP
10
10
00
30
10
10
10
10
38
00
30
ENDCHAR
STARTCHAR LtSmlKLdot
ENCODING 764
SWIDTH 840 0
DWIDTH 6 0
BBX 6 11 0 -2
BITMAP
00
40
40
48
50
60
50
48
48
00
30
ENDCHAR
STARTCHAR LtSmlLLdot
ENCODING 765
SWIDTH 840 0
DWIDTH 6 0
BBX 6 11 0 -2
BITMAP
00
30
10
10
10
10
10
10
38
00
30
ENDCHAR
STARTCHAR LtSmlMLdot
ENCODING 766
SWIDTH 840 0
DWIDTH 6 0
BBX 6 11 0 -2
BITMAP
00
00
00
7c
54
54
54
54
54
00
30
ENDCHAR
STARTCHAR LtSmlNLdot
ENCODING 767
SWIDTH 840 0
DWIDTH 6 0
BBX 6 11 0 -2
BITMAP
00
00
00
58
68
48
48
48
48
00
30
ENDCHAR
STARTCHAR LtSmlOLdot
ENCODING 768
SWIDTH 840 0
DWIDTH 6 0
BBX 6 11 0 -2
BITMAP
00
00
00
30
48
48
48
48
30
00
30
ENDCHAR
STARTCHAR LtSmlPLdot
ENCODING 769
SWIDTH 840 0
DWIDTH 6 0
BBX 6 11 0 -2
BITMAP
00
00
00
70
48
48
48
48
70
40
58
ENDCHAR
STARTCHAR LtSmlQLdot
ENCODING 770
SWIDTH 840 0
DWIDTH 6 0
BBX 6 11 0 -2
BITMAP
00
00
00
38
48
48
48
48
38
08
68
ENDCHAR
STARTCHAR LtSmlRLdot
ENCODING 771
SWIDTH 840 0
DWIDTH 6 0
BBX 6 11 0 -2
BITMAP
00
00
00
78
28
20
20
20
20
00
30
ENDCHAR
STARTCHAR LtSmlSLdot
ENCODING 772
SWIDTH 840 0
DWIDTH 6 0
BBX 6 11 0 -2
BITMAP
00
00
00
38
40
60
18
08
70
00
30
ENDCHAR
STARTCHAR LtSmlTLdot
ENCODING 773
SWIDTH 840 0
DWIDTH 6 0
BBX 6 11 0 -2
BITMAP
00
20
20
78
20
20
20
20
18
00
30
ENDCHAR
STARTCHAR LtSmlULdot
ENCODING 774
SWIDTH 840 0
DWIDTH 6 0
BBX 6 11 0 -2
BITMAP
00
00
00
48
48
48
48
48
38
00
30
ENDCHAR
STARTCHAR LtSmlVLdot
ENCODING 775
SWIDTH 840 0
DWIDTH 6 0
BBX 6 11 0 -2
BITMAP
00
00
00
44
44
28
28
10
10
00
30
ENDCHAR
STARTCHAR LtSmlWLdot
ENCODING 776
SWIDTH 840 0
DWIDTH 6 0
BBX 6 11 0 -2
BITMAP
00
00
00
44
44
54
54
38
28
00
30
ENDCHAR
STARTCHAR LtSmlYLdot
ENCODING 777
SWIDTH 840 0
DWIDTH 6 0
BBX 6 11 0 -2
BITMAP
00
00
00
48
48
48
30
10
20
48
48
ENDCHAR
STARTCHAR LtSmlZLdot
ENCODING 778
SWIDTH 840 0
DWIDTH 6 0
BBX 6 11 0 -2
BITMAP
00
00
00
78
08
10
20
40
78
00
30
ENDCHAR
STARTCHAR LtCapOHornLdot
ENCODING 779
SWIDTH 840 0
DWIDTH 6 0
BBX 6 11 0 -2
BITMAP
04
34
48
48
48
48
48
48
30
00
30
ENDCHAR
STARTCHAR LtCapUHornLdot
ENCODING 780
SWIDTH 840 0
DWIDTH 6 0
BBX 6 11 0 -2
BITMAP
04
4c
48
48
48
48
48
48
30
00
30
ENDCHAR
STARTCHAR LtSmlOHornLdot
ENCODING 781
SWIDTH 840 0
DWIDTH 6 0
BBX 6 11 0 -2
BITMAP
00
00
04
34
48
48
48
48
30
00
30
ENDCHAR
STARTCHAR LtSmlUHornLdot
ENCODING 782
SWIDTH 840 0
DWIDTH 6 0
BBX 6 11 0 -2
BITMAP
00
00
04
4c
48
48
48
48
38
00
30
ENDCHAR
STARTCHAR LtCapSDotLdot
ENCODING 783
SWIDTH 840 0
DWIDTH 6 0
BBX 6 11 0 -2
BITMAP
30
00
30
48
40
30
08
48
30
00
30
ENDCHAR
STARTCHAR LtSmlSDotLdot
ENCODING 784
SWIDTH 840 0
DWIDTH 6 0
BBX 6 11 0 -2
BITMAP
10
10
00
38
40
60
18
08
70
00
30
ENDCHAR
STARTCHAR LtCapLMacronLdot
ENCODING 785
SWIDTH 840 0
DWIDTH 6 0
BBX 6 11 0 -2
BITMAP
78
00
40
40
40
40
40
40
78
00
30
ENDCHAR
STARTCHAR LtCapRMacronLdot
ENCODING 786
SWIDTH 840 0
DWIDTH 6 0
BBX 6 11 0 -2
BITMAP
78
00
70
48
48
70
50
48
48
00
30
ENDCHAR
STARTCHAR LtSmlLMacronLdot
ENCODING 787
SWIDTH 840 0
DWIDTH 6 0
BBX 6 11 0 -2
BITMAP
38
00
30
10
10
10
10
10
38
00
30
ENDCHAR
STARTCHAR LtSmlRMacronLdot
ENCODING 788
SWIDTH 840 0
DWIDTH 6 0
BBX 6 11 0 -2
BITMAP
00
38
00
78
28
20
20
20
20
00
30
ENDCHAR
STARTCHAR LtCapEAcuteLdot
ENCODING 789
SWIDTH 840 0
DWIDTH 6 0
BBX 6 11 0 -2
BITMAP
10
20
78
40
40
70
40
40
78
00
30
ENDCHAR
STARTCHAR LtCapOAcuteLdot
ENCODING 790
SWIDTH 840 0
DWIDTH 6 0
BBX 6 11 0 -2
BITMAP
10
20
30
48
48
48
48
48
30
00
30
ENDCHAR
STARTCHAR LtCapRAcuteLdot
ENCODING 791
SWIDTH 840 0
DWIDTH 6 0
BBX 6 11 0 -2
BITMAP
10
20
70
48
48
70
50
48
48
00
30
ENDCHAR
STARTCHAR LtSmlEAcuteLdot
ENCODING 792
SWIDTH 840 0
DWIDTH 6 0
BBX 6 11 0 -2
BITMAP
10
20
00
30
48
78
40
40
38
00
30
ENDCHAR
STARTCHAR LtSmlOAcuteLdot
ENCODING 793
SWIDTH 840 0
DWIDTH 6 0
BBX 6 11 0 -2
BITMAP
10
20
00
30
48
48
48
48
30
00
30
ENDCHAR
STARTCHAR LtSmlRAcuteLdot
ENCODING 794
SWIDTH 840 0
DWIDTH 6 0
BBX 6 11 0 -2
BITMAP
10
20
00
78
28
20
20
20
20
00
30
ENDCHAR
STARTCHAR LtSmlRMacronAcuteLdot
ENCODING 795
SWIDTH 840 0
DWIDTH 6 0
BBX 6 11 0 -2
BITMAP
10
20
78
00
78
28
20
20
20
00
30
ENDCHAR
STARTCHAR LtCapEGraveLdot
ENCODING 796
SWIDTH 840 0
DWIDTH 6 0
BBX 6 11 0 -2
BITMAP
20
10
78
40
40
70
40
40
78
00
30
ENDCHAR
STARTCHAR LtCapOGraveLdot
ENCODING 797
SWIDTH 840 0
DWIDTH 6 0
BBX 6 11 0 -2
BITMAP
20
10
30
48
48
48
48
48
30
00
30
ENDCHAR
STARTCHAR LtCapRGraveLdot
ENCODING 798
SWIDTH 840 0
DWIDTH 6 0
BBX 6 11 0 -2
BITMAP
20
10
70
48
48
70
50
48
48
00
30
ENDCHAR
STARTCHAR LtSmlEGraveLdot
ENCODING 799
SWIDTH 840 0
DWIDTH 6 0
BBX 6 11 0 -2
BITMAP
20
10
00
30
48
78
40
40
38
00
30
ENDCHAR
STARTCHAR LtSmlOGraveLdot
ENCODING 800
SWIDTH 840 0
DWIDTH 6 0
BBX 6 11 0 -2
BITMAP
20
10
00
30
48
48
48
48
30
00
30
ENDCHAR
STARTCHAR LtSmlRGraveLdot
ENCODING 801
SWIDTH 840 0
DWIDTH 6 0
BBX 6 11 0 -2
BITMAP
20
10
00
78
28
20
20
20
20
00
30
ENDCHAR
STARTCHAR LtCapACircumLdot
ENCODING 802
SWIDTH 840 0
DWIDTH 6 0
BBX 6 11 0 -2
BITMAP
10
28
30
30
48
78
48
48
48
00
30
ENDCHAR
STARTCHAR LtCapECircumLdot
ENCODING 803
SWIDTH 840 0
DWIDTH 6 0
BBX 6 11 0 -2
BITMAP
10
28
78
40
40
70
40
40
78
00
30
ENDCHAR
STARTCHAR LtCapOCircumLdot
ENCODING 804
SWIDTH 840 0
DWIDTH 6 0
BBX 6 11 0 -2
BITMAP
10
28
30
48
48
48
48
48
30
00
30
ENDCHAR
STARTCHAR LtSmlACircumLdot
ENCODING 805
SWIDTH 840 0
DWIDTH 6 0
BBX 6 11 0 -2
BITMAP
10
28
00
30
08
38
48
48
38
00
30
ENDCHAR
STARTCHAR LtSmlECircumLdot
ENCODING 806
SWIDTH 840 0
DWIDTH 6 0
BBX 6 11 0 -2
BITMAP
10
28
00
30
48
78
40
40
38
00
30
ENDCHAR
STARTCHAR LtSmlOCircumLdot
ENCODING 807
SWIDTH 840 0
DWIDTH 6 0
BBX 6 11 0 -2
BITMAP
10
28
00
30
48
48
48
48
30
00
30
ENDCHAR
STARTCHAR LtCapCCaronLdot
ENCODING 808
SWIDTH 840 0
DWIDTH 6 0
BBX 6 11 0 -2
BITMAP
28
10
30
48
40
40
40
48
30
00
30
ENDCHAR
STARTCHAR LtSmlCCaronLdot
ENCODING 809
SWIDTH 840 0
DWIDTH 6 0
BBX 6 11 0 -2
BITMAP
28
10
00
30
48
40
40
40
38
00
30
ENDCHAR
STARTCHAR LtCapABreveLdot
ENCODING 810
SWIDTH 840 0
DWIDTH 6 0
BBX 6 11 0 -2
BITMAP
48
30
30
30
48
78
48
48
48
00
30
ENDCHAR
STARTCHAR LtSmlABreveLdot
ENCODING 811
SWIDTH 840 0
DWIDTH 6 0
BBX 6 11 0 -2
BITMAP
48
30
00
30
08
38
48
48
38
00
30
ENDCHAR
STARTCHAR LtSmlRLvline
ENCODING 815
SWIDTH 840 0
DWIDTH 6 0
BBX 6 11 0 -2
BITMAP
00
00
00
78
28
20
20
20
00
20
20
ENDCHAR
STARTCHAR LtCapALring
ENCODING 817
SWIDTH 840 0
DWIDTH 6 0
BBX 6 11 0 -2
BITMAP
00
30
30
48
48
78
48
48
58
28
10
ENDCHAR
STARTCHAR LtCapRLring
ENCODING 818
SWIDTH 840 0
DWIDTH 6 0
BBX 6 11 0 -2
BITMAP
00
70
48
48
70
50
50
48
58
28
10
ENDCHAR
STARTCHAR LtSmlALring
ENCODING 819
SWIDTH 840 0
DWIDTH 6 0
BBX 6 11 0 -2
BITMAP
00
00
00
30
08
38
48
48
38
28
10
ENDCHAR
STARTCHAR LtSmlLLring
ENCODING 820
SWIDTH 840 0
DWIDTH 6 0
BBX 6 11 0 -2
BITMAP
00
30
10
10
10
10
10
10
38
28
10
ENDCHAR
STARTCHAR LtSmlRLring
ENCODING 821
SWIDTH 840 0
DWIDTH 6 0
BBX 6 11 0 -2
BITMAP
00
00
00
78
28
20
20
20
20
50
20
ENDCHAR
STARTCHAR LtSmlLMacronLring
ENCODING 822
SWIDTH 840 0
DWIDTH 6 0
BBX 6 11 0 -2
BITMAP
38
00
30
10
10
10
10
10
38
28
10
ENDCHAR
STARTCHAR LtSmlRMacronLring
ENCODING 823
SWIDTH 840 0
DWIDTH 6 0
BBX 6 11 0 -2
BITMAP
00
38
00
78
28
20
20
20
20
50
20
ENDCHAR
STARTCHAR LtSmlRAcuteLring
ENCODING 824
SWIDTH 840 0
DWIDTH 6 0
BBX 6 11 0 -2
BITMAP
10
20
00
78
28
20
20
20
20
50
20
ENDCHAR
STARTCHAR LtSmlRMacronAcuteLring
ENCODING 825
SWIDTH 840 0
DWIDTH 6 0
BBX 6 11 0 -2
BITMAP
10
20
78
00
78
28
20
20
20
50
20
ENDCHAR
STARTCHAR LtSmlRGraveLring
ENCODING 826
SWIDTH 840 0
DWIDTH 6 0
BBX 6 11 0 -2
BITMAP
20
10
00
78
28
20
20
20
20
50
20
ENDCHAR
STARTCHAR LtCapULdrss
ENCODING 827
SWIDTH 840 0
DWIDTH 6 0
BBX 6 11 0 -2
BITMAP
00
48
48
48
48
48
48
48
30
00
6c
ENDCHAR
STARTCHAR LtSmlULdrss
ENCODING 828
SWIDTH 840 0
DWIDTH 6 0
BBX 6 11 0 -2
BITMAP
00
00
00
48
48
48
48
48
38
00
6c
ENDCHAR
STARTCHAR LtCapBLmacron
ENCODING 829
SWIDTH 840 0
DWIDTH 6 0
BBX 6 11 0 -2
BITMAP
00
70
48
48
70
48
48
48
70
00
78
ENDCHAR
STARTCHAR LtCapDLmacron
ENCODING 830
SWIDTH 840 0
DWIDTH 6 0
BBX 6 11 0 -2
BITMAP
00
60
50
48
48
48
48
50
60
00
78
ENDCHAR
STARTCHAR LtCapELmacron
ENCODING 831
SWIDTH 840 0
DWIDTH 6 0
BBX 6 11 0 -2
BITMAP
00
78
40
40
70
40
40
40
78
00
78
ENDCHAR
STARTCHAR LtCapHLmacron
ENCODING 832
SWIDTH 840 0
DWIDTH 6 0
BBX 6 11 0 -2
BITMAP
00
48
48
48
78
48
48
48
48
00
78
ENDCHAR
STARTCHAR LtCapKLmacron
ENCODING 833
SWIDTH 840 0
DWIDTH 6 0
BBX 6 11 0 -2
BITMAP
00
48
48
50
60
50
50
48
48
00
78
ENDCHAR
STARTCHAR LtCapLLmacron
ENCODING 834
SWIDTH 840 0
DWIDTH 6 0
BBX 6 11 0 -2
BITMAP
00
40
40
40
40
40
40
40
78
00
78
ENDCHAR
STARTCHAR LtCapNLmacron
ENCODING 835
SWIDTH 840 0
DWIDTH 6 0
BBX 6 11 0 -2
BITMAP
00
48
48
68
68
58
58
48
48
00
78
ENDCHAR
STARTCHAR LtCapOLmacron
ENCODING 836
SWIDTH 840 0
DWIDTH 6 0
BBX 6 11 0 -2
BITMAP
00
30
48
48
48
48
48
48
30
00
78
ENDCHAR
STARTCHAR LtCapRLmacron
ENCODING 837
SWIDTH 840 0
DWIDTH 6 0
BBX 6 11 0 -2
BITMAP
00
70
48
48
70
50
50
48
48
00
78
ENDCHAR
STARTCHAR LtCapTLmacron
ENCODING 838
SWIDTH 840 0
DWIDTH 6 0
BBX 6 11 0 -2
BITMAP
00
7c
10
10
10
10
10
10
10
00
78
ENDCHAR
STARTCHAR LtCapZLmacron
ENCODING 839
SWIDTH 840 0
DWIDTH 6 0
BBX 6 11 0 -2
BITMAP
00
78
08
10
10
20
20
40
78
00
78
ENDCHAR
STARTCHAR LtSmlBLmacron
ENCODING 840
SWIDTH 840 0
DWIDTH 6 0
BBX 6 11 0 -2
BITMAP
00
40
40
70
48
48
48
48
70
00
78
ENDCHAR
STARTCHAR LtSmlDLmacron
ENCODING 841
SWIDTH 840 0
DWIDTH 6 0
BBX 6 11 0 -2
BITMAP
00
08
08
38
48
48
48
48
38
00
78
ENDCHAR
STARTCHAR LtSmlELmacron
ENCODING 842
SWIDTH 840 0
DWIDTH 6 0
BBX 6 11 0 -2
BITMAP
00
00
00
30
48
78
40
40
38
00
78
ENDCHAR
STARTCHAR LtSmlHLmacron
ENCODING 843
SWIDTH 840 0
DWIDTH 6 0
BBX 6 11 0 -2
BITMAP
00
40
40
58
68
48
48
48
48
00
78
ENDCHAR
STARTCHAR LtSmlKLmacron
ENCODING 844
SWIDTH 840 0
DWIDTH 6 0
BBX 6 11 0 -2
BITMAP
00
40
40
48
50
60
50
48
48
00
78
ENDCHAR
STARTCHAR LtSmlLLmacron
ENCODING 845
SWIDTH 840 0
DWIDTH 6 0
BBX 6 11 0 -2
BITMAP
00
30
10
10
10
10
10
10
38
00
78
ENDCHAR
STARTCHAR LtSmlNLmacron
ENCODING 846
SWIDTH 840 0
DWIDTH 6 0
BBX 6 11 0 -2
BITMAP
00
00
00
58
68
48
48
48
48
00
78
ENDCHAR
STARTCHAR LtSmlOLmacron
ENCODING 847
SWIDTH 840 0
DWIDTH 6 0
BBX 6 11 0 -2
BITMAP
00
00
00
30
48
48
48
48
30
00
78
ENDCHAR
STARTCHAR LtSmlRLmacron
ENCODING 848
SWIDTH 840 0
DWIDTH 6 0
BBX 6 11 0 -2
BITMAP
00
00
00
78
28
20
20
20
20
00
78
ENDCHAR
STARTCHAR LtSmlTLmacron
ENCODING 849
SWIDTH 840 0
DWIDTH 6 0
BBX 6 11 0 -2
BITMAP
00
20
20
78
20
20
20
20
18
00
78
ENDCHAR
STARTCHAR LtSmlZLmacron
ENCODING 850
SWIDTH 840 0
DWIDTH 6 0
BBX 6 11 0 -2
BITMAP
00
00
00
78
08
10
20
40
78
00
78
ENDCHAR
STARTCHAR LtCapGHLmacron
ENCODING 851
SWIDTH 840 0
DWIDTH 6 0
BBX 6 11 0 -2
BITMAP
00
54
b4
94
9c
f4
b4
b4
74
00
78
ENDCHAR
STARTCHAR LtCapKHLmacron
ENCODING 852
SWIDTH 840 0
DWIDTH 6 0
BBX 6 11 0 -2
BITMAP
00
b4
b4
b4
dc
d4
b4
b4
b4
00
78
ENDCHAR
STARTCHAR LtMixGHLmacron
ENCODING 853
SWIDTH 840 0
DWIDTH 6 0
BBX 6 11 0 -2
BITMAP
00
50
b0
9c
94
f4
b4
b4
74
00
78
ENDCHAR
STARTCHAR LtMixKHLmacron
ENCODING 854
SWIDTH 840 0
DWIDTH 6 0
BBX 6 11 0 -2
BITMAP
00
b0
b0
bc
d4
d4
b4
b4
b4
00
78
ENDCHAR
STARTCHAR LtSmlGHLmacron
ENCODING 855
SWIDTH 840 0
DWIDTH 6 0
BBX 6 11 0 -2
BITMAP
00
10
10
7c
b4
b4
b4
f4
34
a0
f8
ENDCHAR
STARTCHAR LtSmlKHLmacron
ENCODING 856
SWIDTH 840 0
DWIDTH 6 0
BBX 6 11 0 -2
BITMAP
00
90
90
bc
b4
d4
f4
b4
b4
00
78
ENDCHAR
STARTCHAR LtCapDLcircum
ENCODING 857
SWIDTH 840 0
DWIDTH 6 0
BBX 6 11 0 -2
BITMAP
00
60
50
48
48
48
48
50
60
20
50
ENDCHAR
STARTCHAR LtCapELcircum
ENCODING 858
SWIDTH 840 0
DWIDTH 6 0
BBX 6 11 0 -2
BITMAP
00
78
40
40
70
40
40
40
78
20
50
ENDCHAR
STARTCHAR LtCapLLcircum
ENCODING 859
SWIDTH 840 0
DWIDTH 6 0
BBX 6 11 0 -2
BITMAP
00
40
40
40
40
40
40
40
78
20
50
ENDCHAR
STARTCHAR LtCapNLcircum
ENCODING 860
SWIDTH 840 0
DWIDTH 6 0
BBX 6 11 0 -2
BITMAP
00
48
48
68
68
58
58
48
48
20
50
ENDCHAR
STARTCHAR LtCapTLcircum
ENCODING 861
SWIDTH 840 0
DWIDTH 6 0
BBX 6 11 0 -2
BITMAP
00
7c
10
10
10
10
10
10
10
10
28
ENDCHAR
STARTCHAR LtCapULcircum
ENCODING 862
SWIDTH 840 0
DWIDTH 6 0
BBX 6 11 0 -2
BITMAP
00
48
48
48
48
48
48
48
30
10
28
ENDCHAR
STARTCHAR LtSmlDLcircum
ENCODING 863
SWIDTH 840 0
DWIDTH 6 0
BBX 6 11 0 -2
BITMAP
00
08
08
38
48
48
48
48
38
10
28
ENDCHAR
STARTCHAR LtSmlELcircum
ENCODING 864
SWIDTH 840 0
DWIDTH 6 0
BBX 6 11 0 -2
BITMAP
00
00
00
30
48
78
40
40
38
10
28
ENDCHAR
STARTCHAR LtSmlLLcircum
ENCODING 865
SWIDTH 840 0
DWIDTH 6 0
BBX 6 11 0 -2
BITMAP
00
30
10
10
10
10
10
10
38
10
28
ENDCHAR
STARTCHAR LtSmlNLcircum
ENCODING 866
SWIDTH 840 0
DWIDTH 6 0
BBX 6 11 0 -2
BITMAP
00
00
00
58
68
48
48
48
48
10
28
ENDCHAR
STARTCHAR LtSmlTLcircum
ENCODING 867
SWIDTH 840 0
DWIDTH 6 0
BBX 6 11 0 -2
BITMAP
00
20
20
78
20
20
20
20
18
10
28
ENDCHAR
STARTCHAR LtSmlULcircum
ENCODING 868
SWIDTH 840 0
DWIDTH 6 0
BBX 6 11 0 -2
BITMAP
00
00
00
48
48
48
48
48
38
20
50
ENDCHAR
STARTCHAR LtCapHLbreve
ENCODING 869
SWIDTH 840 0
DWIDTH 6 0
BBX 6 11 0 -2
BITMAP
00
48
48
48
78
48
48
48
00
48
30
ENDCHAR
STARTCHAR LtSmlHLbreve
ENCODING 870
SWIDTH 840 0
DWIDTH 6 0
BBX 6 11 0 -2
BITMAP
00
40
40
58
68
48
48
48
00
48
30
ENDCHAR
STARTCHAR LtSmlILinvbreve
ENCODING 871
SWIDTH 840 0
DWIDTH 6 0
BBX 6 11 0 -2
BITMAP
10
10
00
30
10
10
10
38
00
30
48
ENDCHAR
STARTCHAR LtSmlOLinvbreve
ENCODING 872
SWIDTH 840 0
DWIDTH 6 0
BBX 6 11 0 -2
BITMAP
00
00
00
30
48
48
48
30
00
30
48
ENDCHAR
STARTCHAR LtSmlULinvbreve
ENCODING 873
SWIDTH 840 0
DWIDTH 6 0
BBX 6 11 0 -2
BITMAP
00
00
00
48
48
48
48
38
00
30
48
ENDCHAR
STARTCHAR LtSmlATrndLinvbreve
ENCODING 874
SWIDTH 840 0
DWIDTH 6 0
BBX 6 11 0 -2
BITMAP
00
00
00
f0
48
70
40
30
00
30
48
ENDCHAR
STARTCHAR LtCapELtilde
ENCODING 875
SWIDTH 840 0
DWIDTH 6 0
BBX 6 11 0 -2
BITMAP
00
78
40
40
70
40
40
40
78
28
50
ENDCHAR
STARTCHAR LtCapILtilde
ENCODING 876
SWIDTH 840 0
DWIDTH 6 0
BBX 6 11 0 -2
BITMAP
00
38
10
10
10
10
10
10
38
28
50
ENDCHAR
STARTCHAR LtCapULtilde
ENCODING 877
SWIDTH 840 0
DWIDTH 6 0
BBX 6 11 0 -2
BITMAP
00
48
48
48
48
48
48
48
30
28
50
ENDCHAR
STARTCHAR LtSmlELtilde
ENCODING 878
SWIDTH 840 0
DWIDTH 6 0
BBX 6 11 0 -2
BITMAP
00
00
00
30
48
78
40
40
38
28
50
ENDCHAR
STARTCHAR LtSmlILtilde
ENCODING 879
SWIDTH 840 0
DWIDTH 6 0
BBX 6 11 0 -2
BITMAP
10
10
00
30
10
10
10
10
38
28
50
ENDCHAR
STARTCHAR LtSmlULtilde
ENCODING 880
SWIDTH 840 0
DWIDTH 6 0
BBX 6 11 0 -2
BITMAP
00
00
00
48
48
48
48
48
38
28
50
ENDCHAR
STARTCHAR HbAlefPatah
ENCODING 1274
SWIDTH 840 0
DWIDTH 6 0
BBX 6 11 0 -2
BITMAP
00
00
00
50
48
30
50
48
68
00
78
ENDCHAR
STARTCHAR HbAlefQamats
ENCODING 1276
SWIDTH 840 0
DWIDTH 6 0
BBX 6 11 0 -2
BITMAP
00
00
00
50
48
30
50
48
68
70
20
ENDCHAR
STARTCHAR GeGan
ENCODING 1307
SWIDTH 840 0
DWIDTH 6 0
BBX 6 11 0 -2
BITMAP
00
00
00
00
20
50
10
30
48
48
30
ENDCHAR
STARTCHAR GeDon
ENCODING 1308
SWIDTH 840 0
DWIDTH 6 0
BBX 6 11 0 -2
BITMAP
00
00
00
00
30
48
48
30
20
70
08
ENDCHAR
STARTCHAR GeEn
ENCODING 1309
SWIDTH 840 0
DWIDTH 6 0
BBX 6 11 0 -2
BITMAP
00
00
00
00
30
28
08
08
08
48
30
ENDCHAR
STARTCHAR GeVin
ENCODING 1310
SWIDTH 840 0
DWIDTH 6 0
BBX 6 11 0 -2
BITMAP
00
00
00
00
30
28
08
30
08
48
30
ENDCHAR
STARTCHAR GeKan
ENCODING 1314
SWIDTH 840 0
DWIDTH 6 0
BBX 6 11 0 -2
BITMAP
00
00
00
00
08
08
08
30
08
48
30
ENDCHAR
STARTCHAR GeLas
ENCODING 1315
SWIDTH 840 0
DWIDTH 6 0
BBX 6 11 0 -2
BITMAP
00
00
00
00
30
48
48
40
20
70
08
ENDCHAR
STARTCHAR GeZhar
ENCODING 1320
SWIDTH 840 0
DWIDTH 6 0
BBX 6 11 0 -2
BITMAP
00
00
00
00
5c
54
54
24
04
24
18
ENDCHAR
STARTCHAR GeTar
ENCODING 1323
SWIDTH 840 0
DWIDTH 6 0
BBX 6 11 0 -2
BITMAP
00
00
00
10
28
54
44
44
44
44
38
ENDCHAR
STARTCHAR GeUn
ENCODING 1324
SWIDTH 840 0
DWIDTH 6 0
BBX 6 11 0 -2
BITMAP
00
00
00
00
58
74
14
04
44
44
38
ENDCHAR
STARTCHAR GePhar
ENCODING 1325
SWIDTH 840 0
DWIDTH 6 0
BBX 6 11 0 -2
BITMAP
00
00
00
00
3c
54
54
28
04
24
18
ENDCHAR
STARTCHAR GeKhar
ENCODING 1326
SWIDTH 840 0
DWIDTH 6 0
BBX 6 11 0 -2
BITMAP
00
08
08
08
08
38
28
08
08
48
30
ENDCHAR
STARTCHAR GeGhan
ENCODING 1327
SWIDTH 840 0
DWIDTH 6 0
BBX 6 11 0 -2
BITMAP
00
00
00
00
28
54
54
44
20
78
04
ENDCHAR
STARTCHAR GeQar
ENCODING 1328
SWIDTH 840 0
DWIDTH 6 0
BBX 6 11 0 -2
BITMAP
00
00
00
00
48
48
48
38
08
48
30
ENDCHAR
STARTCHAR GeCan
ENCODING 1331
SWIDTH 840 0
DWIDTH 6 0
BBX 6 11 0 -2
BITMAP
00
00
00
00
50
48
48
50
48
48
30
ENDCHAR
STARTCHAR GeCil
ENCODING 1333
SWIDTH 840 0
DWIDTH 6 0
BBX 6 11 0 -2
BITMAP
00
28
54
54
40
38
28
28
10
10
10
ENDCHAR
STARTCHAR GeChar
ENCODING 1334
SWIDTH 840 0
DWIDTH 6 0
BBX 6 11 0 -2
BITMAP
00
20
20
10
08
18
28
18
08
48
30
ENDCHAR
STARTCHAR GeWe
ENCODING 1340
SWIDTH 840 0
DWIDTH 6 0
BBX 6 11 0 -2
BITMAP
00
00
00
00
38
08
10
30
08
48
30
ENDCHAR
STARTCHAR GeHar
ENCODING 1341
SWIDTH 840 0
DWIDTH 6 0
BBX 6 11 0 -2
BITMAP
00
10
20
20
18
08
10
30
08
48
30
ENDCHAR
STARTCHAR GeFi
ENCODING 1343
SWIDTH 840 0
DWIDTH 6 0
BBX 6 11 0 -2
BITMAP
00
00
00
00
28
54
54
54
18
10
20
ENDCHAR
STARTCHAR GeYn
ENCODING 1344
SWIDTH 840 0
DWIDTH 6 0
BBX 6 11 0 -2
BITMAP
00
00
00
00
30
48
08
30
40
48
30
ENDCHAR
STARTCHAR GeElifi
ENCODING 1345
SWIDTH 840 0
DWIDTH 6 0
BBX 6 11 0 -2
BITMAP
00
00
00
00
48
48
48
70
40
48
30
ENDCHAR
STARTCHAR GeUo
ENCODING 1348
SWIDTH 840 0
DWIDTH 6 0
BBX 6 11 0 -2
BITMAP
00
00
00
00
34
5c
50
40
44
44
38
ENDCHAR
STARTCHAR GeGanTrnd
ENCODING 1351
SWIDTH 840 0
DWIDTH 6 0
BBX 6 11 0 -2
BITMAP
00
00
00
00
30
48
48
30
20
28
10
ENDCHAR
STARTCHAR GeUnDrss
ENCODING 1354
SWIDTH 840 0
DWIDTH 6 0
BBX 6 11 0 -2
BITMAP
00
28
28
00
58
74
14
04
44
44
38
ENDCHAR
STARTCHAR GeUnCircum
ENCODING 1356
SWIDTH 840 0
DWIDTH 6 0
BBX 6 11 0 -2
BITMAP
00
30
48
00
58
74
14
04
44
44
38
ENDCHAR
STARTCHAR GeEnMacron
ENCODING 1358
SWIDTH 840 0
DWIDTH 6 0
BBX 6 11 0 -2
BITMAP
00
00
38
00
30
28
08
08
08
48
30
ENDCHAR
STARTCHAR GeUnMacron
ENCODING 1361
SWIDTH 840 0
DWIDTH 6 0
BBX 6 11 0 -2
BITMAP
00
00
38
00
58
74
14
04
44
44
38
ENDCHAR
STARTCHAR AmSmlEh
ENCODING 1408
SWIDTH 840 0
DWIDTH 6 0
BBX 6 11 0 -2
BITMAP
00
40
40
40
78
40
40
40
30
08
00
ENDCHAR
STARTCHAR AmSmlYi
ENCODING 1422
SWIDTH 840 0
DWIDTH 6 0
BBX 6 11 0 -2
BITMAP
00
00
00
00
30
10
10
10
10
90
60
ENDCHAR
STARTCHAR AmSmlSha
ENCODING 1424
SWIDTH 840 0
DWIDTH 6 0
BBX 6 11 0 -2
BITMAP
00
00
00
00
30
48
08
10
20
40
38
ENDCHAR
STARTCHAR AmSmlCha
ENCODING 1426
SWIDTH 840 0
DWIDTH 6 0
BBX 6 11 0 -2
BITMAP
00
00
00
00
10
20
10
10
20
40
38
ENDCHAR
STARTCHAR AmSmlJheh
ENCODING 1428
SWIDTH 840 0
DWIDTH 6 0
BBX 6 11 0 -2
BITMAP
00
30
48
48
48
50
30
20
40
40
38
ENDCHAR
STARTCHAR AmSmlCo
ENCODING 1434
SWIDTH 840 0
DWIDTH 6 0
BBX 6 11 0 -2
BITMAP
00
00
00
00
38
48
48
38
08
48
30
ENDCHAR
STARTCHAR AmSmlKeh
ENCODING 1437
SWIDTH 840 0
DWIDTH 6 0
BBX 6 11 0 -2
BITMAP
00
00
00
00
70
48
48
70
40
78
40
ENDCHAR
STARTCHAR GkCapIotTrndLbreve
ENCODING 1530
SWIDTH 840 0
DWIDTH 6 0
BBX 6 11 0 -2
BITMAP
00
38
10
10
10
10
10
38
00
48
30
ENDCHAR
STARTCHAR GkCapUpsTrndLbreve
ENCODING 1531
SWIDTH 840 0
DWIDTH 6 0
BBX 6 11 0 -2
BITMAP
00
10
10
10
10
28
44
44
00
48
30
ENDCHAR
STARTCHAR GkSmlIotTrndLbreve
ENCODING 1532
SWIDTH 840 0
DWIDTH 6 0
BBX 6 11 0 -2
BITMAP
00
00
00
60
10
10
10
10
00
48
30
ENDCHAR
STARTCHAR GkSmlUpsTrndLbreve
ENCODING 1533
SWIDTH 840 0
DWIDTH 6 0
BBX 6 11 0 -2
BITMAP
00
00
00
30
48
48
48
48
00
48
30
ENDCHAR
STARTCHAR ThYoYing
ENCODING 1771
SWIDTH 840 0
DWIDTH 6 0
BBX 6 11 0 -2
BITMAP
00
00
00
00
48
a8
a8
a8
98
08
30
ENDCHAR
STARTCHAR ThDoChada
ENCODING 1773
SWIDTH 840 0
DWIDTH 6 0
BBX 6 11 0 -2
BITMAP
00
00
00
00
30
48
68
28
28
08
38
ENDCHAR
STARTCHAR ThToPatak
ENCODING 1774
SWIDTH 840 0
DWIDTH 6 0
BBX 6 11 0 -2
BITMAP
00
00
00
00
30
48
68
28
08
28
78
ENDCHAR
STARTCHAR ThThoThan
ENCODING 1775
SWIDTH 840 0
DWIDTH 6 0
BBX 6 11 0 -2
BITMAP
00
00
00
00
78
10
28
18
08
20
78
ENDCHAR
STARTCHAR ThRu
ENCODING 1796
SWIDTH 840 0
DWIDTH 6 0
BBX 6 11 0 -2
BITMAP
00
00
00
00
70
88
c8
48
68
08
08
ENDCHAR
STARTCHAR ThLu
ENCODING 1798
SWIDTH 840 0
DWIDTH 6 0
BBX 6 11 0 -2
BITMAP
00
00
00
00
30
48
68
28
68
08
08
ENDCHAR
STARTCHAR ThMaiyamok
ENCODING 1809
SWIDTH 840 0
DWIDTH 6 0
BBX 6 11 0 -2
BITMAP
00
00
00
00
50
a8
88
c8
08
08
10
ENDCHAR
STARTCHAR ThLakkhangyao
ENCODING 1810
SWIDTH 840 0
DWIDTH 6 0
BBX 6 11 0 -2
BITMAP
00
00
00
00
30
48
08
08
08
08
08
ENDCHAR
STARTCHAR ThSaraU
ENCODING 1832
SWIDTH 840 0
DWIDTH 6 0
BBX 6 11 0 -2
BITMAP
00
00
00
00
00
00
00
00
00
18
08
ENDCHAR
STARTCHAR ThSaraUu
ENCODING 1833
SWIDTH 840 0
DWIDTH 6 0
BBX 6 11 0 -2
BITMAP
00
00
00
00
00
00
00
00
00
68
38
ENDCHAR
STARTCHAR ThPhinthu
ENCODING 1834
SWIDTH 840 0
DWIDTH 6 0
BBX 6 11 0 -2
BITMAP
00
00
00
00
00
00
00
00
00
00
18
ENDCHAR
STARTCHAR CombHbMeteg
ENCODING 2123
SWIDTH 840 0
DWIDTH 6 0
BBX 6 11 0 -2
BITMAP
00
00
00
00
00
00
00
00
20
20
20
ENDCHAR
STARTCHAR CombHbPatah
ENCODING 2124
SWIDTH 840 0
DWIDTH 6 0
BBX 6 11 0 -2
BITMAP
00
00
00
00
00
00
00
00
00
00
78
ENDCHAR
STARTCHAR CombHbQamats
ENCODING 2125
SWIDTH 840 0
DWIDTH 6 0
BBX 6 11 0 -2
BITMAP
00
00
00
00
00
00
00
00
00
70
20
ENDCHAR
STARTCHAR CombHbSegol
ENCODING 2126
SWIDTH 840 0
DWIDTH 6 0
BBX 6 11 0 -2
BITMAP
00
00
00
00
00
00
00
00
00
88
20
ENDCHAR
STARTCHAR CombHbHatafQamats
ENCODING 2130
SWIDTH 840 0
DWIDTH 6 0
BBX 6 11 0 -2
BITMAP
00
00
00
00
00
00
00
00
08
e0
48
ENDCHAR
STARTCHAR CombLdot
ENCODING 2179
SWIDTH 840 0
DWIDTH 6 0
BBX 6 11 0 -2
BITMAP
00
00
00
00
00
00
00
00
00
00
30
ENDCHAR
STARTCHAR CombLvline
ENCODING 2180
SWIDTH 840 0
DWIDTH 6 0
BBX 6 11 0 -2
BITMAP
00
00
00
00
00
00
00
00
00
10
10
ENDCHAR
STARTCHAR CombLdrss
ENCODING 2181
SWIDTH 840 0
DWIDTH 6 0
BBX 6 11 0 -2
BITMAP
00
00
00
00
00
00
00
00
00
00
6c
ENDCHAR
STARTCHAR CombLvline2
ENCODING 2182
SWIDTH 840 0
DWIDTH 6 0
BBX 6 11 0 -2
BITMAP
00
00
00
00
00
00
00
00
00
28
28
ENDCHAR
STARTCHAR CombLcircum
ENCODING 2185
SWIDTH 840 0
DWIDTH 6 0
BBX 6 11 0 -2
BITMAP
00
00
00
00
00
00
00
00
00
10
28
ENDCHAR
STARTCHAR CombLcaron
ENCODING 2186
SWIDTH 840 0
DWIDTH 6 0
BBX 6 11 0 -2
BITMAP
00
00
00
00
00
00
00
00
00
28
10
ENDCHAR
STARTCHAR CombLbreve
ENCODING 2187
SWIDTH 840 0
DWIDTH 6 0
BBX 6 11 0 -2
BITMAP
00
00
00
00
00
00
00
00
00
48
30
ENDCHAR
STARTCHAR CombLinvbreve
ENCODING 2188
SWIDTH 840 0
DWIDTH 6 0
BBX 6 11 0 -2
BITMAP
00
00
00
00
00
00
00
00
00
30
48
ENDCHAR
STARTCHAR CombLmacron
ENCODING 2189
SWIDTH 840 0
DWIDTH 6 0
BBX 6 11 0 -2
BITMAP
00
00
00
00
00
00
00
00
00
00
78
ENDCHAR
STARTCHAR CombLtilde
ENCODING 2192
SWIDTH 840 0
DWIDTH 6 0
BBX 6 11 0 -2
BITMAP
00
00
00
00
00
00
00
00
00
28
50
ENDCHAR
STARTCHAR MArrowU
ENCODING 2487
SWIDTH 840 0
DWIDTH 6 0
BBX 6 11 0 -2
BITMAP
10
38
10
10
10
10
10
10
10
10
00
ENDCHAR
STARTCHAR MArrowD
ENCODING 2488
SWIDTH 840 0
DWIDTH 6 0
BBX 6 11 0 -2
BITMAP
10
10
10
10
10
10
10
10
38
10
00
ENDCHAR
STARTCHAR MArrowUD
ENCODING 2489
SWIDTH 840 0
DWIDTH 6 0
BBX 6 11 0 -2
BITMAP
10
38
10
10
10
10
10
10
38
10
00
ENDCHAR
STARTCHAR MArrowUDBase
ENCODING 2490
SWIDTH 840 0
DWIDTH 6 0
BBX 6 11 0 -2
BITMAP
10
38
10
10
10
10
10
38
10
38
00
ENDCHAR
STARTCHAR MArrowULeftD
ENCODING 2491
SWIDTH 840 0
DWIDTH 6 0
BBX 6 11 0 -2
BITMAP
48
e8
48
48
48
48
48
48
5c
48
00
ENDCHAR
STARTCHAR MArrowULeftU
ENCODING 2492
SWIDTH 840 0
DWIDTH 6 0
BBX 6 11 0 -2
BITMAP
48
fc
48
48
48
48
48
48
48
48
00
ENDCHAR
STARTCHAR MArrowDLeftD
ENCODING 2493
SWIDTH 840 0
DWIDTH 6 0
BBX 6 11 0 -2
BITMAP
48
48
48
48
48
48
48
48
fc
48
00
ENDCHAR
STARTCHAR MArrowUu
ENCODING 2494
SWIDTH 840 0
DWIDTH 6 0
BBX 6 11 0 -2
BITMAP
10
38
10
38
10
10
10
10
10
10
00
ENDCHAR
STARTCHAR MArrowDd
ENCODING 2495
SWIDTH 840 0
DWIDTH 6 0
BBX 6 11 0 -2
BITMAP
10
10
10
10
10
10
38
10
38
10
00
ENDCHAR
STARTCHAR MArrowBarU
ENCODING 2496
SWIDTH 840 0
DWIDTH 6 0
BBX 6 11 0 -2
BITMAP
10
38
10
10
10
10
10
10
10
38
00
ENDCHAR
STARTCHAR MArrowBarD
ENCODING 2497
SWIDTH 840 0
DWIDTH 6 0
BBX 6 11 0 -2
BITMAP
38
10
10
10
10
10
10
10
38
10
00
ENDCHAR
STARTCHAR MArrowLU
ENCODING 2500
SWIDTH 840 0
DWIDTH 6 0
BBX 6 11 0 -2
BITMAP
40
60
60
20
10
10
08
08
04
04
00
ENDCHAR
STARTCHAR MArrowRU
ENCODING 2501
SWIDTH 840 0
DWIDTH 6 0
BBX 6 11 0 -2
BITMAP
04
0c
0c
08
10
10
20
20
40
40
00
ENDCHAR
STARTCHAR MArrowLD
ENCODING 2502
SWIDTH 840 0
DWIDTH 6 0
BBX 6 11 0 -2
BITMAP
04
04
08
08
10
10
20
60
60
40
00
ENDCHAR
STARTCHAR MArrowRD
ENCODING 2503
SWIDTH 840 0
DWIDTH 6 0
BBX 6 11 0 -2
BITMAP
40
40
20
20
10
10
08
0c
0c
04
00
ENDCHAR
STARTCHAR MArrow2U
ENCODING 2512
SWIDTH 840 0
DWIDTH 6 0
BBX 6 11 0 -2
BITMAP
10
38
6c
28
28
28
28
28
28
28
00
ENDCHAR
STARTCHAR MArrow2D
ENCODING 2513
SWIDTH 840 0
DWIDTH 6 0
BBX 6 11 0 -2
BITMAP
28
28
28
28
28
28
28
6c
38
10
00
ENDCHAR
STARTCHAR MArrow2UD
ENCODING 2514
SWIDTH 840 0
DWIDTH 6 0
BBX 6 11 0 -2
BITMAP
10
38
6c
28
28
28
28
6c
38
10
00
ENDCHAR
STARTCHAR MHarpoonUl
ENCODING 2530
SWIDTH 840 0
DWIDTH 6 0
BBX 6 11 0 -2
BITMAP
10
30
10
10
10
10
10
10
10
10
00
ENDCHAR
STARTCHAR MHarpoonUr
ENCODING 2531
SWIDTH 840 0
DWIDTH 6 0
BBX 6 11 0 -2
BITMAP
10
18
10
10
10
10
10
10
10
10
00
ENDCHAR
STARTCHAR MHarpoonDl
ENCODING 2532
SWIDTH 840 0
DWIDTH 6 0
BBX 6 11 0 -2
BITMAP
10
10
10
10
10
10
10
10
30
10
00
ENDCHAR
STARTCHAR MHarpoonDr
ENCODING 2533
SWIDTH 840 0
DWIDTH 6 0
BBX 6 11 0 -2
BITMAP
10
10
10
10
10
10
10
10
18
10
00
ENDCHAR
STARTCHAR PCurlyBrackLTRB
ENCODING 2663
SWIDTH 840 0
DWIDTH 6 0
BBX 6 11 0 -2
BITMAP
0c
10
10
10
10
10
10
10
10
10
60
ENDCHAR
STARTCHAR PCurlyBrackLBRT
ENCODING 2664
SWIDTH 840 0
DWIDTH 6 0
BBX 6 11 0 -2
BITMAP
60
10
10
10
10
10
10
10
10
10
0c
ENDCHAR
STARTCHAR MSumT
ENCODING 2665
SWIDTH 840 0
DWIDTH 6 0
BBX 6 11 0 -2
BITMAP
7c
40
40
20
20
20
10
10
10
08
08
ENDCHAR
STARTCHAR MRootB
ENCODING 2667
SWIDTH 840 0
DWIDTH 6 0
BBX 6 11 0 -2
BITMAP
10
10
10
10
10
90
50
50
30
10
10
ENDCHAR
ENDFONT
